<svg width="16" height="22" viewBox="0 0 16 22" fill="none" xmlns="http://www.w3.org/2000/svg">
<path d="M5 7V7.43H0.505604C0.546856 5.62663 0.819931 4.04835 1.45946 2.85491C2.13102 1.6017 3.22192 0.741013 5 0.504114V1V7ZM14.537 2.85522C15.1776 4.04876 15.4527 5.6271 15.4943 7.43L11 7.43V7V1V0.504136C12.7729 0.74102 13.864 1.60154 14.537 2.85522ZM2.6967 19.2333C1.29018 17.8268 0.5 15.9191 0.5 13.93V10.43H15.5V13.93C15.5 15.9191 14.7098 17.8268 13.3033 19.2333C11.8968 20.6398 9.98912 21.43 8 21.43C6.01088 21.43 4.10322 20.6398 2.6967 19.2333ZM7.5 6V2H8.5V6H7.5Z" stroke="white"/>
</svg>
